<!-- icon666.com - MILLIONS vector ICONS FREE --><svg version="1.1" id="Capa_1" xmlns="http://www.w3.org/2000/svg" xmlns:xlink="http://www.w3.org/1999/xlink" x="0px" y="0px" viewBox="0 0 512 512" style="enable-background:new 0 0 512 512;" xml:space="preserve"><path style="fill:#9BCCEA;" d="M391.493,59.898l-87.806,152.087c-5.207,9.019-16.739,12.108-25.756,6.901 c-9.021-5.208-12.11-16.739-6.904-25.757l87.807-152.085c5.208-9.02,16.74-12.108,25.759-6.902 C393.612,39.347,396.7,50.878,391.493,59.898z"></path><path style="opacity:0.1;enable-background:new ;" d="M292.808,155.401l-21.783,37.726c-5.207,9.02-2.117,20.551,6.904,25.757 c9.019,5.208,20.551,2.118,25.756-6.901l21.782-37.727l-21.347-0.74L292.808,155.401z"></path><path style="opacity:0.1;enable-background:new ;" d="M351.176,54.307l-38.156,66.088l2.02,7.537 c0,0.002,0.001,0.004,0.001,0.008c1.348,5.03,4.608,9.036,8.787,11.451c4.178,2.413,9.278,3.231,14.308,1.883 c0.002-0.001,0.004-0.002,0.008-0.002l7.537-2.02l38.155-66.088l-25.756,6.901L351.176,54.307z"></path><g><path style="fill:#9BCCEA;" d="M352.775,89.25L334.36,20.53c-2.694-10.06-13.035-16.03-23.093-13.335s-16.03,13.036-13.335,23.095 l23.294,86.924c0,0.002,0.002,0.004,0.002,0.008c1.348,5.03,4.607,9.037,8.786,11.451c4.178,2.413,9.279,3.232,14.308,1.884 c0.002-0.001,0.004-0.002,0.008-0.003l86.925-23.289c5.03-1.347,9.036-4.606,11.449-8.786c2.413-4.179,3.232-9.279,1.885-14.308 c-2.695-10.06-13.035-16.03-23.094-13.335L352.775,89.25z"></path><path style="fill:#9BCCEA;" d="M391.493,452.102l-87.806-152.085c-5.207-9.02-16.739-12.109-25.756-6.902 c-9.021,5.208-12.11,16.74-6.904,25.757l87.807,152.087c5.208,9.019,16.74,12.108,25.759,6.901 C393.612,472.654,396.7,461.122,391.493,452.102z"></path></g><path style="opacity:0.1;enable-background:new ;" d="M351.176,457.695l-38.156-66.088l2.02-7.537 c0-0.002,0.001-0.004,0.001-0.009c1.348-5.03,4.608-9.036,8.787-11.449c4.178-2.413,9.278-3.232,14.308-1.884 c0.002,0.002,0.004,0.003,0.008,0.003l7.537,2.018l38.155,66.089l-25.756-6.902L351.176,457.695z"></path><g><path style="fill:#9BCCEA;" d="M352.775,422.751L334.36,491.47c-2.694,10.062-13.035,16.03-23.093,13.335 s-16.03-13.035-13.335-23.094l23.294-86.925c0-0.001,0.002-0.004,0.002-0.008c1.348-5.03,4.607-9.036,8.786-11.451 c4.178-2.412,9.279-3.231,14.308-1.884c0.002,0.002,0.004,0.003,0.008,0.003l86.925,23.289c5.03,1.348,9.036,4.606,11.449,8.786 c2.413,4.179,3.232,9.279,1.885,14.308c-2.695,10.06-13.035,16.029-23.094,13.333L352.775,422.751z"></path><path style="fill:#9BCCEA;" d="M493.144,274.86H317.531c-10.414,0-18.857-8.442-18.857-18.855s8.442-18.856,18.857-18.856h175.613 c10.414,0,18.857,8.442,18.857,18.856C512,266.418,503.558,274.86,493.144,274.86z"></path></g><path style="opacity:0.1;enable-background:new ;" d="M361.093,237.148h-43.562c-10.414,0-18.857,8.442-18.857,18.856 c0,10.413,8.442,18.855,18.857,18.855h43.562l-10.032-18.855L361.093,237.148z"></path><path style="opacity:0.1;enable-background:new ;" d="M477.826,237.148h-76.311l-5.517,5.517 c-0.001,0.001-0.003,0.003-0.006,0.004c-3.684,3.683-5.524,8.508-5.524,13.335c0,4.826,1.84,9.651,5.524,13.335 c0.002,0.001,0.004,0.003,0.006,0.004l5.517,5.517h76.311l-18.854-18.855L477.826,237.148z"></path><g><path style="fill:#9BCCEA;" d="M448.365,256.005l50.306-50.307c7.365-7.365,7.365-19.304,0-26.667 c-7.364-7.364-19.303-7.364-26.666,0.001l-63.633,63.635c-0.001,0.001-0.003,0.003-0.005,0.004 c-3.683,3.683-5.523,8.508-5.523,13.335s1.84,9.651,5.523,13.335c0.002,0.001,0.004,0.003,0.005,0.004l63.632,63.635 c3.682,3.683,8.507,5.524,13.333,5.524c4.826,0,9.651-1.842,13.333-5.523c7.365-7.364,7.365-19.303,0-26.667L448.365,256.005z"></path><path style="fill:#9BCCEA;" d="M120.506,59.898l87.807,152.087c5.207,9.019,16.739,12.108,25.756,6.901 c9.021-5.208,12.11-16.739,6.904-25.757L153.168,41.041c-5.208-9.02-16.74-12.108-25.759-6.902 C118.39,39.347,115.3,50.878,120.506,59.898z"></path></g><path style="opacity:0.1;enable-background:new ;" d="M219.192,155.401l21.783,37.726c5.207,9.02,2.117,20.551-6.904,25.757 c-9.019,5.208-20.551,2.118-25.756-6.901l-21.782-37.727l21.347-0.74L219.192,155.401z"></path><path style="opacity:0.1;enable-background:new ;" d="M160.825,54.307l38.156,66.088l-2.02,7.537 c0,0.002-0.001,0.004-0.001,0.008c-1.348,5.03-4.608,9.036-8.787,11.451c-4.178,2.413-9.278,3.231-14.308,1.883 c-0.002-0.001-0.006-0.002-0.008-0.002l-7.537-2.02l-38.155-66.088l25.756,6.901L160.825,54.307z"></path><g><path style="fill:#9BCCEA;" d="M159.226,89.25l18.414-68.72c2.695-10.06,13.036-16.03,23.094-13.335s16.03,13.036,13.335,23.095 l-23.294,86.924c0,0.002-0.002,0.004-0.002,0.008c-1.348,5.03-4.607,9.037-8.786,11.451c-4.178,2.413-9.279,3.232-14.308,1.884 c-0.002-0.001-0.006-0.002-0.008-0.003l-86.925-23.289c-5.03-1.347-9.036-4.606-11.449-8.786 c-2.414-4.179-3.232-9.279-1.885-14.308c2.694-10.06,13.035-16.03,23.094-13.335L159.226,89.25z"></path><path style="fill:#9BCCEA;" d="M120.506,452.102l87.807-152.085c5.207-9.02,16.739-12.109,25.756-6.902 c9.021,5.208,12.11,16.74,6.904,25.757l-87.807,152.087c-5.208,9.019-16.74,12.108-25.759,6.901 C118.39,472.654,115.3,461.122,120.506,452.102z"></path></g><path style="opacity:0.1;enable-background:new ;" d="M208.282,375.457l32.692-56.584c5.207-9.019,2.117-20.551-6.904-25.757 c-9.019-5.208-20.551-2.118-25.756,6.902l-32.69,56.583c0,0,10.443-5.78,21.347,0.741 C207.874,363.862,208.282,375.457,208.282,375.457z"></path><path style="opacity:0.1;enable-background:new ;" d="M303.718,375.457l-32.692-56.584c-5.207-9.019-2.117-20.551,6.904-25.757 c9.019-5.208,20.551-2.118,25.756,6.902l32.69,56.583c0,0-10.443-5.78-21.347,0.741 C304.127,363.862,303.718,375.457,303.718,375.457z"></path><path style="opacity:0.1;enable-background:new ;" d="M160.825,457.695l38.156-66.088l-2.02-7.537 c0-0.002-0.001-0.004-0.001-0.009c-1.348-5.03-4.608-9.036-8.787-11.449c-4.178-2.413-9.278-3.232-14.308-1.884 c-0.002,0.002-0.006,0.003-0.008,0.003l-7.537,2.018l-38.155,66.089l25.756-6.902L160.825,457.695z"></path><g><path style="fill:#9BCCEA;" d="M159.226,422.751l18.414,68.719c2.695,10.062,13.036,16.03,23.094,13.335 s16.03-13.035,13.335-23.094l-23.294-86.925c0-0.001-0.002-0.004-0.002-0.008c-1.348-5.03-4.607-9.036-8.786-11.451 c-4.178-2.412-9.279-3.231-14.308-1.884c-0.002,0.002-0.006,0.003-0.008,0.003l-86.925,23.289 c-5.03,1.348-9.036,4.606-11.449,8.786c-2.414,4.179-3.232,9.279-1.885,14.308c2.694,10.06,13.035,16.029,23.094,13.333 L159.226,422.751z"></path><path style="fill:#9BCCEA;" d="M18.855,274.86h175.614c10.414,0,18.856-8.442,18.856-18.855s-8.442-18.856-18.856-18.856H18.855 C8.442,237.148,0,245.591,0,256.005C0,266.418,8.442,274.86,18.855,274.86z"></path></g><path style="opacity:0.1;enable-background:new ;" d="M150.908,237.148h43.562c10.414,0,18.856,8.442,18.856,18.856 c0,10.413-8.442,18.855-18.856,18.855h-43.562l10.032-18.855L150.908,237.148z"></path><path style="opacity:0.1;enable-background:new ;" d="M34.173,237.148h76.312l5.517,5.517c0.001,0.001,0.003,0.003,0.006,0.004 c3.684,3.683,5.524,8.508,5.524,13.335c0,4.826-1.84,9.651-5.524,13.335c-0.002,0.001-0.004,0.003-0.006,0.004l-5.517,5.517H34.173 l18.855-18.855L34.173,237.148z"></path><g><path style="fill:#9BCCEA;" d="M63.636,256.005L13.33,205.698c-7.365-7.365-7.365-19.304,0-26.667 c7.364-7.364,19.303-7.364,26.666,0.001l63.632,63.635c0.001,0.001,0.003,0.003,0.006,0.004c3.683,3.683,5.523,8.508,5.523,13.335 s-1.84,9.651-5.523,13.335c-0.002,0.001-0.004,0.003-0.006,0.004L39.996,332.98c-3.682,3.683-8.507,5.524-13.333,5.524 s-9.651-1.842-13.333-5.523c-7.365-7.364-7.365-19.303,0-26.667L63.636,256.005z"></path><path style="fill:#9BCCEA;" d="M256.005,375.441c-6.503,0-12.549-3.351-15.995-8.868l-24.859-39.809l-46.904-1.625 c-6.5-0.225-12.425-3.785-15.678-9.417c-3.251-5.632-3.372-12.543-0.316-18.285l22.045-41.434l-22.045-41.434 c-3.055-5.742-2.935-12.652,0.316-18.285c3.252-5.632,9.177-9.192,15.678-9.417l46.904-1.625l24.859-39.809 c3.446-5.516,9.491-8.868,15.995-8.868c6.504,0,12.549,3.351,15.995,8.868l24.86,39.809l46.904,1.625 c6.5,0.225,12.425,3.785,15.677,9.417c3.253,5.632,3.373,12.543,0.316,18.285l-22.043,41.434l22.043,41.434 c3.056,5.742,2.937,12.653-0.316,18.285c-3.252,5.632-9.176,9.192-15.677,9.417l-46.904,1.625L272,366.573 C268.552,372.089,262.508,375.441,256.005,375.441z M199.73,288.495l26.754,0.927c6.268,0.217,12.018,3.536,15.342,8.857 l14.179,22.707l14.18-22.707c3.324-5.32,9.073-8.639,15.342-8.857l26.754-0.927l-12.575-23.633c-2.946-5.537-2.946-12.177,0-17.713 l12.575-23.633l-26.754-0.927c-6.269-0.217-12.018-3.536-15.342-8.857l-14.18-22.707l-14.179,22.707 c-3.324,5.32-9.073,8.639-15.342,8.857l-26.754,0.927l12.573,23.633c2.947,5.537,2.947,12.177,0,17.713L199.73,288.495z"></path></g></svg>